<?xml version="1.0" encoding="UTF-8" standalone="no"?>
<svg width="1202px" height="1404px" viewBox="0 0 1202 1404" version="1.1" xmlns="http://www.w3.org/2000/svg" xmlns:xlink="http://www.w3.org/1999/xlink" xmlns:sketch="http://www.bohemiancoding.com/sketch/ns">
    <!-- Generator: Sketch 3.3.2 (12043) - http://www.bohemiancoding.com/sketch -->
    <title>Artboard 1</title>
    <desc>Created with Sketch.</desc>
    <defs>
        <rect id="path-1" x="0" y="0" width="1200" height="1200" rx="140"></rect>
    </defs>
    <g id="Page-2" stroke="none" stroke-width="1" fill="none" fill-rule="evenodd" sketch:type="MSPage">
        <g id="Artboard-1" sketch:type="MSArtboardGroup" transform="translate(-436.000000, -57.000000)">
            <g id="frankenwiki-+-fw-logo-copy" sketch:type="MSLayerGroup" transform="translate(436.000000, 57.000000)">
                <g id="fw-logo" transform="translate(1.000000, 1.000000)">
                    <mask id="mask-2" sketch:name="Mask" fill="white">
                        <use xlink:href="#path-1"></use>
                    </mask>
                    <use id="Mask" fill="#E41F1F" sketch:type="MSShapeGroup" xlink:href="#path-1"></use>
                    <rect id="Rectangle-1" fill="#55A305" sketch:type="MSShapeGroup" mask="url(#mask-2)" x="0" y="0" width="1200" height="1200"></rect>
                    <path d="M0,0 L1200,0 L1200,552.135375 C1200,552.135375 1060.75189,351.275093 896.298348,347.775314 C791.219523,345.539103 617.783038,527.272692 581.461523,527.272703 C581.461523,527.272703 544.664081,323.879432 530.439162,323.879432 C512.565471,323.879432 351.28795,487.134245 347.003425,482.279915 C328.109891,460.87371 232.584609,288.685174 214.144339,288.685195 C197.864625,288.685213 0,455.670457 0,455.670457 L0,0 Z" id="Rectangle-2" fill="#000000" sketch:type="MSShapeGroup" mask="url(#mask-2)"></path>
                    <circle id="Oval-1" fill="#000000" sketch:type="MSShapeGroup" mask="url(#mask-2)" cx="242.224013" cy="927.800161" r="67.2038678"></circle>
                    <circle id="Oval-2" fill="#000000" sketch:type="MSShapeGroup" mask="url(#mask-2)" cx="652.215955" cy="848.509267" r="146.494762"></circle>
                </g>
                <path d="M1146.67188,1404 L1118.07812,1404 L1118.07812,1299.1875 L1146.67188,1299.1875 L1146.67188,1404 Z" id="Path-Copy" fill="#55A306" sketch:type="MSShapeGroup"></path>
                <path d="M1116.85938,1272.09375 C1116.85938,1262.7812 1122.04682,1258.125 1132.42188,1258.125 C1142.79693,1258.125 1147.98438,1262.7812 1147.98438,1272.09375 C1147.98438,1276.53127 1146.68751,1279.98436 1144.09375,1282.45312 C1141.49999,1284.92189 1137.6094,1286.15625 1132.42188,1286.15625 C1122.04682,1286.15625 1116.85938,1281.4688 1116.85938,1272.09375 L1116.85938,1272.09375 Z" id="Path-Copy-2" fill="#55A306" sketch:type="MSShapeGroup"></path>
                <path d="M1026.48438,1347 L1038.95312,1331.0625 L1068.29688,1299.1875 L1100.54688,1299.1875 L1058.92188,1344.65625 L1103.07812,1404 L1070.07812,1404 L1039.89062,1361.53125 L1027.60938,1371.375 L1027.60938,1404 L999.015625,1404 L999.015625,1258.125 L1027.60938,1258.125 L1027.60938,1323.1875 L1026.10938,1347 L1026.48438,1347 Z" id="Path-Copy-3" fill="#55A306" sketch:type="MSShapeGroup"></path>
                <path d="M969.015625,1404 L940.421875,1404 L940.421875,1299.1875 L969.015625,1299.1875 L969.015625,1404 Z" id="Path-Copy-4" fill="#55A306" sketch:type="MSShapeGroup"></path>
                <path d="M939.203125,1272.09375 C939.203125,1262.7812 944.390573,1258.125 954.765625,1258.125 C965.140677,1258.125 970.328125,1262.7812 970.328125,1272.09375 C970.328125,1276.53127 969.031263,1279.98436 966.4375,1282.45312 C963.843737,1284.92189 959.953151,1286.15625 954.765625,1286.15625 C944.390573,1286.15625 939.203125,1281.4688 939.203125,1272.09375 L939.203125,1272.09375 Z" id="Path-Copy-5" fill="#55A306" sketch:type="MSShapeGroup"></path>
                <path d="M862.234375,1404 L854.171875,1367.34375 L843.296875,1321.03125 L842.640625,1321.03125 L823.515625,1404 L792.765625,1404 L762.953125,1299.1875 L791.453125,1299.1875 L803.546875,1345.59375 C805.484385,1353.90629 807.453115,1365.37493 809.453125,1380 L810.015625,1380 C810.265626,1375.24998 811.359365,1367.7188 813.296875,1357.40625 L814.796875,1349.4375 L827.734375,1299.1875 L859.234375,1299.1875 L871.515625,1349.4375 C871.765626,1350.81251 872.156247,1352.84374 872.6875,1355.53125 C873.218753,1358.21876 873.734373,1361.07811 874.234375,1364.10938 C874.734377,1367.14064 875.187498,1370.10936 875.59375,1373.01562 C876.000002,1375.92189 876.234375,1378.24999 876.296875,1380 L876.859375,1380 C877.421878,1375.49998 878.421868,1369.32816 879.859375,1361.48438 C881.296882,1353.64059 882.328122,1348.34376 882.953125,1345.59375 L895.515625,1299.1875 L923.546875,1299.1875 L893.359375,1404 L862.234375,1404 Z" id="Path-Copy-6" fill="#55A306" sketch:type="MSShapeGroup"></path>
            </g>
            <path d="M511.109375,1461 L495.171875,1461 L495.171875,1323.9375 L571.578125,1323.9375 L571.578125,1338.09375 L511.109375,1338.09375 L511.109375,1388.25 L567.921875,1388.25 L567.921875,1402.40625 L511.109375,1402.40625 L511.109375,1461 Z M638.796875,1356.375 C643.359398,1356.375 647.453107,1356.75 651.078125,1357.5 L648.921875,1371.9375 C644.671854,1371 640.921891,1370.53125 637.671875,1370.53125 C629.359333,1370.53125 622.25003,1373.90622 616.34375,1380.65625 C610.43747,1387.40628 607.484375,1395.81245 607.484375,1405.875 L607.484375,1461 L591.921875,1461 L591.921875,1358.25 L604.765625,1358.25 L606.546875,1377.28125 L607.296875,1377.28125 C611.109394,1370.59372 615.703098,1365.43752 621.078125,1361.8125 C626.453152,1358.18748 632.359343,1356.375 638.796875,1356.375 L638.796875,1356.375 Z M729.640625,1461 L726.546875,1446.375 L725.796875,1446.375 C720.671849,1452.81253 715.562525,1457.17186 710.46875,1459.45312 C705.374975,1461.73439 699.015663,1462.875 691.390625,1462.875 C681.203074,1462.875 673.218779,1460.25003 667.4375,1455 C661.656221,1449.74997 658.765625,1442.2813 658.765625,1432.59375 C658.765625,1411.84365 675.359209,1400.96875 708.546875,1399.96875 L725.984375,1399.40625 L725.984375,1393.03125 C725.984375,1384.96871 724.250017,1379.01564 720.78125,1375.17188 C717.312483,1371.32811 711.765663,1369.40625 704.140625,1369.40625 C695.578082,1369.40625 685.890679,1372.03122 675.078125,1377.28125 L670.296875,1365.375 C675.3594,1362.62499 680.90622,1360.46876 686.9375,1358.90625 C692.96878,1357.34374 699.015595,1356.5625 705.078125,1356.5625 C717.328186,1356.5625 726.40622,1359.28122 732.3125,1364.71875 C738.21878,1370.15628 741.171875,1378.87494 741.171875,1390.875 L741.171875,1461 L729.640625,1461 Z M694.484375,1450.03125 C704.171923,1450.03125 711.781222,1447.37503 717.3125,1442.0625 C722.843778,1436.74997 725.609375,1429.31255 725.609375,1419.75 L725.609375,1410.46875 L710.046875,1411.125 C697.671813,1411.5625 688.750027,1413.48436 683.28125,1416.89062 C677.812473,1420.29689 675.078125,1425.59371 675.078125,1432.78125 C675.078125,1438.40628 676.781233,1442.68749 680.1875,1445.625 C683.593767,1448.56251 688.359344,1450.03125 694.484375,1450.03125 L694.484375,1450.03125 Z M843.546875,1461 L843.546875,1394.53125 C843.546875,1386.15621 841.640644,1379.90627 837.828125,1375.78125 C834.015606,1371.65623 828.046916,1369.59375 819.921875,1369.59375 C809.171821,1369.59375 801.2969,1372.49997 796.296875,1378.3125 C791.29685,1384.12503 788.796875,1393.71868 788.796875,1407.09375 L788.796875,1461 L773.234375,1461 L773.234375,1358.25 L785.890625,1358.25 L788.421875,1372.3125 L789.171875,1372.3125 C792.359391,1367.24997 796.828096,1363.32814 802.578125,1360.54688 C808.328154,1357.76561 814.73434,1356.375 821.796875,1356.375 C834.171937,1356.375 843.484344,1359.35935 849.734375,1365.32812 C855.984406,1371.2969 859.109375,1380.84368 859.109375,1393.96875 L859.109375,1461 L843.546875,1461 Z M906.453125,1408.40625 C909.140638,1404.59373 913.234348,1399.59378 918.734375,1393.40625 L951.921875,1358.25 L970.390625,1358.25 L928.765625,1402.03125 L973.296875,1461 L954.453125,1461 L918.171875,1412.4375 L906.453125,1422.5625 L906.453125,1461 L891.078125,1461 L891.078125,1315.125 L906.453125,1315.125 L906.453125,1392.46875 C906.453125,1395.90627 906.203127,1401.21871 905.703125,1408.40625 L906.453125,1408.40625 Z M1031.42188,1462.875 C1016.2343,1462.875 1004.25004,1458.25005 995.46875,1449 C986.687456,1439.74995 982.296875,1426.90633 982.296875,1410.46875 C982.296875,1393.90617 986.374959,1380.75005 994.53125,1371 C1002.68754,1361.24995 1013.64056,1356.375 1027.39062,1356.375 C1040.26569,1356.375 1050.45309,1360.60933 1057.95312,1369.07812 C1065.45316,1377.54692 1069.20312,1388.71868 1069.20312,1402.59375 L1069.20312,1412.4375 L998.421875,1412.4375 C998.734377,1424.50006 1001.78122,1433.65622 1007.5625,1439.90625 C1013.34378,1446.15628 1021.48432,1449.28125 1031.98438,1449.28125 C1043.04693,1449.28125 1053.98432,1446.96877 1064.79688,1442.34375 L1064.79688,1456.21875 C1059.29685,1458.59376 1054.09377,1460.29687 1049.1875,1461.32812 C1044.28123,1462.35938 1038.35941,1462.875 1031.42188,1462.875 L1031.42188,1462.875 Z M1027.20312,1369.40625 C1018.95308,1369.40625 1012.37502,1372.09372 1007.46875,1377.46875 C1002.56248,1382.84378 999.671879,1390.2812 998.796875,1399.78125 L1052.51562,1399.78125 C1052.51562,1389.9687 1050.32815,1382.45315 1045.95312,1377.23438 C1041.5781,1372.0156 1035.32817,1369.40625 1027.20312,1369.40625 L1027.20312,1369.40625 Z M1166.04688,1461 L1166.04688,1394.53125 C1166.04688,1386.15621 1164.14064,1379.90627 1160.32812,1375.78125 C1156.51561,1371.65623 1150.54692,1369.59375 1142.42188,1369.59375 C1131.67182,1369.59375 1123.7969,1372.49997 1118.79688,1378.3125 C1113.79685,1384.12503 1111.29688,1393.71868 1111.29688,1407.09375 L1111.29688,1461 L1095.73438,1461 L1095.73438,1358.25 L1108.39062,1358.25 L1110.92188,1372.3125 L1111.67188,1372.3125 C1114.85939,1367.24997 1119.3281,1363.32814 1125.07812,1360.54688 C1130.82815,1357.76561 1137.23434,1356.375 1144.29688,1356.375 C1156.67194,1356.375 1165.98434,1359.35935 1172.23438,1365.32812 C1178.48441,1371.2969 1181.60938,1380.84368 1181.60938,1393.96875 L1181.60938,1461 L1166.04688,1461 Z" id="Frankenwiki-Copy-5" fill="#000000" sketch:type="MSShapeGroup"></path>
        </g>
    </g>
</svg>